<svg width="18" height="18" viewBox="0 0 18 18" fill="none" xmlns="http://www.w3.org/2000/svg">
<path d="M11.28 9.33C12.9659 9.8229 14.4467 10.8489 15.5005 12.2542C16.5543 13.6595 17.1242 15.3685 17.125 17.125H0.875C0.875354 15.3684 1.44517 13.6592 2.49899 12.2538C3.55282 10.8484 5.03385 9.82254 6.72 9.33L9 12.75L11.28 9.33ZM13.0625 4.9375C13.0625 6.01494 12.6345 7.04825 11.8726 7.81012C11.1108 8.57199 10.0774 9 9 9C7.92256 9 6.88925 8.57199 6.12738 7.81012C5.36551 7.04825 4.9375 6.01494 4.9375 4.9375C4.9375 3.86006 5.36551 2.82675 6.12738 2.06488C6.88925 1.30301 7.92256 0.875 9 0.875C10.0774 0.875 11.1108 1.30301 11.8726 2.06488C12.6345 2.82675 13.0625 3.86006 13.0625 4.9375Z" fill="white"/>
</svg>
