<svg width="25" height="25" viewBox="0 0 25 25" fill="none" xmlns="http://www.w3.org/2000/svg">
<path d="M13.8889 0H11.1111V13.8889H13.8889V0ZM20.5972 3.01389L18.625 4.98611C19.7499 5.88845 20.6573 7.03236 21.28 8.33306C21.9027 9.63377 22.2247 11.0579 22.2222 12.5C22.2222 17.875 17.875 22.2222 12.5 22.2222C10.4934 22.2234 8.53559 21.6032 6.89563 20.4469C5.25568 19.2906 4.01402 17.6548 3.34124 15.7643C2.66845 13.8738 2.59756 11.8213 3.13829 9.88894C3.67903 7.95654 4.80486 6.23897 6.36111 4.97222L4.40278 3.01389C3.02238 4.17905 1.91316 5.63168 1.15267 7.2702C0.392187 8.90873 -0.00120579 10.6936 2.77626e-06 12.5C2.82566e-06 15.8152 1.31696 18.9946 3.66117 21.3388C6.00537 23.683 9.1848 25 12.5 25C15.8152 25 18.9946 23.683 21.3388 21.3388C23.683 18.9946 25 15.8152 25 12.5C25 8.69444 23.2917 5.30556 20.5972 3.01389Z" fill="white"/>
</svg>
