<svg width="32" height="32" viewBox="0 0 32 32" fill="none" xmlns="http://www.w3.org/2000/svg">
<path d="M3 16C2.99985 18.0411 3.56854 20.0535 4.66001 21.8744C5.75149 23.6952 7.33508 25.2733 9.28258 26.4809C11.2301 27.6884 13.4867 28.4915 15.8699 28.8252C18.253 29.1588 20.6956 29.0136 23 28.4012C19.8763 27.5718 17.1472 25.9219 15.2099 23.6915C13.2725 21.4611 12.2278 18.7666 12.2278 16C12.2278 13.2334 13.2725 10.5389 15.2099 8.3085C17.1472 6.07813 19.8763 4.42821 23 3.59876C20.6956 2.98643 18.253 2.84121 15.8699 3.17484C13.4867 3.50847 11.2301 4.31158 9.28258 5.51915C7.33508 6.72672 5.75149 8.3048 4.66001 10.1256C3.56854 11.9465 2.99985 13.9589 3 16Z" fill="white"/>
</svg>
