<svg width="25" height="20" viewBox="0 0 25 20" fill="none" xmlns="http://www.w3.org/2000/svg">
<path d="M0 20V16.5C0 15.7917 0.177083 15.1408 0.53125 14.5475C0.885416 13.9542 1.375 13.5008 2 13.1875C3.25 12.5625 4.54708 12.0833 5.89125 11.75C7.23541 11.4167 8.605 11.25 10 11.25C10.5208 11.25 11.0417 11.2867 11.5625 11.36C12.0833 11.4333 12.6042 11.5217 13.125 11.625V13.5938C12.1875 14.0521 11.4325 14.6563 10.86 15.4063C10.2875 16.1562 10.0008 17.1354 10 18.3438V20H0ZM12.5 20V18.25C12.5 17.75 12.6304 17.2867 12.8912 16.86C13.1521 16.4333 13.5217 16.1258 14 15.9375C14.75 15.625 15.5262 15.3908 16.3287 15.235C17.1312 15.0792 17.9383 15.0008 18.75 15C19.5617 14.9992 20.3692 15.0775 21.1725 15.235C21.9758 15.3925 22.7517 15.6267 23.5 15.9375C23.9792 16.125 24.3492 16.4325 24.61 16.86C24.8708 17.2875 25.0008 17.7508 25 18.25V20H12.5ZM18.75 13.75C17.875 13.75 17.1354 13.4479 16.5312 12.8438C15.9271 12.2396 15.625 11.5 15.625 10.625C15.625 9.75 15.9271 9.01042 16.5312 8.40625C17.1354 7.80208 17.875 7.5 18.75 7.5C19.625 7.5 20.3646 7.80208 20.9687 8.40625C21.5729 9.01042 21.875 9.75 21.875 10.625C21.875 11.5 21.5729 12.2396 20.9687 12.8438C20.3646 13.4479 19.625 13.75 18.75 13.75ZM10 10C8.625 10 7.44792 9.51042 6.46875 8.53125C5.48958 7.55208 5 6.375 5 5C5 3.625 5.48958 2.44792 6.46875 1.46875C7.44792 0.489584 8.625 0 10 0C11.375 0 12.5521 0.489584 13.5312 1.46875C14.5104 2.44792 15 3.625 15 5C15 6.375 14.5104 7.55208 13.5312 8.53125C12.5521 9.51042 11.375 10 10 10Z" fill="#D5CACA"/>
</svg>
