<svg width="22" height="22" viewBox="0 0 22 22" fill="none" xmlns="http://www.w3.org/2000/svg">
<path d="M11 8.25C10.2707 8.25 9.5712 8.53973 9.05548 9.05546C8.53975 9.57118 8.25002 10.2707 8.25002 11C8.25002 11.7293 8.53975 12.4288 9.05548 12.9445C9.5712 13.4603 10.2707 13.75 11 13.75C11.7294 13.75 12.4288 13.4603 12.9446 12.9445C13.4603 12.4288 13.75 11.7293 13.75 11C13.75 10.2707 13.4603 9.57118 12.9446 9.05546C12.4288 8.53973 11.7294 8.25 11 8.25ZM11 15.5833C9.78445 15.5833 8.61866 15.1004 7.75911 14.2409C6.89957 13.3814 6.41669 12.2156 6.41669 11C6.41669 9.78442 6.89957 8.61864 7.75911 7.75909C8.61866 6.89955 9.78445 6.41667 11 6.41667C12.2156 6.41667 13.3814 6.89955 14.2409 7.75909C15.1005 8.61864 15.5834 9.78442 15.5834 11C15.5834 12.2156 15.1005 13.3814 14.2409 14.2409C13.3814 15.1004 12.2156 15.5833 11 15.5833ZM11 4.125C6.41669 4.125 2.50252 6.97583 0.916687 11C2.50252 15.0242 6.41669 17.875 11 17.875C15.5834 17.875 19.4975 15.0242 21.0834 11C19.4975 6.97583 15.5834 4.125 11 4.125Z" fill="white"/>
</svg>
