<svg width="25" height="25" viewBox="0 0 25 25" fill="none" xmlns="http://www.w3.org/2000/svg">
<path d="M4.8125 18.875C5.875 18.0625 7.0625 17.4221 8.375 16.9537C9.6875 16.4854 11.0625 16.2508 12.5 16.25C13.9375 16.2492 15.3125 16.4837 16.625 16.9537C17.9375 17.4237 19.125 18.0642 20.1875 18.875C20.9167 18.0208 21.4846 17.0521 21.8912 15.9687C22.2979 14.8854 22.5008 13.7292 22.5 12.5C22.5 9.72917 21.5262 7.36958 19.5787 5.42125C17.6312 3.47292 15.2717 2.49917 12.5 2.5C9.72833 2.50083 7.36875 3.475 5.42125 5.4225C3.47375 7.37 2.5 9.72917 2.5 12.5C2.5 13.7292 2.70333 14.8854 3.11 15.9687C3.51667 17.0521 4.08417 18.0208 4.8125 18.875ZM12.5 13.75C11.2708 13.75 10.2342 13.3283 9.39 12.485C8.54583 11.6417 8.12416 10.605 8.125 9.375C8.12583 8.145 8.54791 7.10833 9.39124 6.265C10.2346 5.42167 11.2708 5 12.5 5C13.7292 5 14.7658 5.42208 15.61 6.26625C16.4542 7.11041 16.8758 8.14666 16.875 9.375C16.8742 10.6033 16.4525 11.64 15.61 12.485C14.7675 13.33 13.7308 13.7517 12.5 13.75ZM12.5 25C10.7708 25 9.14583 24.6717 7.625 24.015C6.10417 23.3583 4.78125 22.4679 3.65625 21.3437C2.53125 20.2196 1.64083 18.8967 0.985001 17.375C0.329168 15.8533 0.000834915 14.2283 1.58228e-06 12.5C-0.00083175 10.7717 0.327501 9.14667 0.985001 7.625C1.6425 6.10333 2.53292 4.78042 3.65625 3.65625C4.77958 2.53208 6.1025 1.64167 7.625 0.985C9.1475 0.328333 10.7725 0 12.5 0C14.2275 0 15.8525 0.328333 17.375 0.985C18.8975 1.64167 20.2204 2.53208 21.3437 3.65625C22.4671 4.78042 23.3579 6.10333 24.0162 7.625C24.6746 9.14667 25.0025 10.7717 25 12.5C24.9975 14.2283 24.6692 15.8533 24.015 17.375C23.3608 18.8967 22.4704 20.2196 21.3437 21.3437C20.2171 22.4679 18.8942 23.3587 17.375 24.0162C15.8558 24.6737 14.2308 25.0017 12.5 25ZM12.5 22.5C13.6042 22.5 14.6458 22.3387 15.625 22.0162C16.6042 21.6937 17.5 21.23 18.3125 20.625C17.5 20.0208 16.6042 19.5575 15.625 19.235C14.6458 18.9125 13.6042 18.7508 12.5 18.75C11.3958 18.7492 10.3542 18.9108 9.375 19.235C8.39583 19.5592 7.5 20.0225 6.6875 20.625C7.5 21.2292 8.39583 21.6929 9.375 22.0162C10.3542 22.3396 11.3958 22.5008 12.5 22.5ZM12.5 11.25C13.0417 11.25 13.4896 11.0729 13.8437 10.7187C14.1979 10.3646 14.375 9.91666 14.375 9.375C14.375 8.83333 14.1979 8.38542 13.8437 8.03125C13.4896 7.67708 13.0417 7.5 12.5 7.5C11.9583 7.5 11.5104 7.67708 11.1562 8.03125C10.8021 8.38542 10.625 8.83333 10.625 9.375C10.625 9.91666 10.8021 10.3646 11.1562 10.7187C11.5104 11.0729 11.9583 11.25 12.5 11.25Z" fill="#D5CACA"/>
</svg>
