<svg width="28" height="28" viewBox="0 0 28 28" fill="none" xmlns="http://www.w3.org/2000/svg">
<g filter="url(#filter0_d_40_49)">
<path d="M14.5263 20V16.3824L20.3421 9.91177C20.5 9.73529 20.6754 9.60784 20.8684 9.52941C21.0614 9.45098 21.2544 9.41177 21.4474 9.41177C21.6579 9.41177 21.8596 9.45608 22.0526 9.54471C22.2456 9.63333 22.421 9.76549 22.5789 9.94118L23.5526 11.0294C23.693 11.2059 23.8028 11.402 23.8821 11.6176C23.9614 11.8333 24.0007 12.049 24 12.2647C23.9993 12.4804 23.9642 12.7012 23.8947 12.9271C23.8253 13.1529 23.7112 13.3537 23.5526 13.5294L17.7632 20H14.5263ZM4 18.8235V15.5294C4 14.8627 4.15368 14.2502 4.46105 13.6918C4.76842 13.1333 5.17614 12.7067 5.68421 12.4118C6.77193 11.8039 7.87719 11.3482 9 11.0447C10.1228 10.7412 11.2632 10.589 12.421 10.5882C13.0702 10.5882 13.7105 10.6325 14.3421 10.7212C14.9737 10.8098 15.6053 10.9518 16.2368 11.1471L12.421 15.4118V18.8235H4ZM21.4474 13.4118L22.421 12.2647L21.4474 11.1765L20.4474 12.2941L21.4474 13.4118ZM12.421 9.41177C11.2632 9.41177 10.2719 8.95098 9.44737 8.02941C8.6228 7.10784 8.21052 6 8.21052 4.70588C8.21052 3.41176 8.6228 2.30392 9.44737 1.38235C10.2719 0.460785 11.2632 0 12.421 0C13.5789 0 14.5702 0.460785 15.3947 1.38235C16.2193 2.30392 16.6316 3.41176 16.6316 4.70588C16.6316 6 16.2193 7.10784 15.3947 8.02941C14.5702 8.95098 13.5789 9.41177 12.421 9.41177Z" fill="white"/>
</g>
<defs>
<filter id="filter0_d_40_49" x="0" y="0" width="28" height="28" filterUnits="userSpaceOnUse" color-interpolation-filters="sRGB">
<feFlood flood-opacity="0" result="BackgroundImageFix"/>
<feColorMatrix in="SourceAlpha" type="matrix" values="0 0 0 0 0 0 0 0 0 0 0 0 0 0 0 0 0 0 127 0" result="hardAlpha"/>
<feOffset dy="4"/>
<feGaussianBlur stdDeviation="2"/>
<feComposite in2="hardAlpha" operator="out"/>
<feColorMatrix type="matrix" values="0 0 0 0 0 0 0 0 0 0 0 0 0 0 0 0 0 0 0.25 0"/>
<feBlend mode="normal" in2="BackgroundImageFix" result="effect1_dropShadow_40_49"/>
<feBlend mode="normal" in="SourceGraphic" in2="effect1_dropShadow_40_49" result="shape"/>
</filter>
</defs>
</svg>
