<svg width="20" height="20" viewBox="0 0 20 20" fill="none" xmlns="http://www.w3.org/2000/svg">
<path d="M10.6213 16.9014C11.2935 16.9014 11.95 16.8113 12.5909 16.631C13.2317 16.4507 13.8413 16.1887 14.4197 15.8451L10.7855 12.2066H10.6213C9.57405 12.2066 8.55803 12.375 7.57327 12.7117C6.58851 13.0485 5.68191 13.5374 4.85346 14.1784C5.63501 15.0391 6.49472 15.7083 7.43259 16.1859C8.37046 16.6635 9.43337 16.902 10.6213 16.9014ZM18.5698 20L15.803 17.23C15.0371 17.7308 14.2165 18.1142 13.3411 18.3803C12.4658 18.6463 11.5592 18.7793 10.6213 18.7793C9.32395 18.7793 8.10473 18.533 6.96366 18.0404C5.82259 17.5477 4.83001 16.8786 3.98593 16.0329C3.14185 15.1872 2.47378 14.1934 1.98171 13.0516C1.48964 11.9099 1.2433 10.6892 1.24267 9.38967C1.24267 8.46635 1.37179 7.56651 1.63001 6.69014C1.88824 5.81377 2.26714 4.98435 2.76671 4.20188L0 1.40845L1.33646 0.0704226L19.9062 18.662L18.5698 20ZM18.4525 14.554L13.1067 9.20188C13.3724 8.90454 13.5719 8.57214 13.705 8.20469C13.8382 7.83725 13.9045 7.44977 13.9039 7.04225C13.9039 6.13459 13.5834 5.35994 12.9426 4.71831C12.3017 4.07668 11.5279 3.75587 10.6213 3.75587C10.2149 3.75587 9.82821 3.82254 9.46119 3.95587C9.09418 4.0892 8.76186 4.28858 8.46424 4.55399L5.46307 1.5493C6.229 1.04851 7.04963 0.665102 7.92497 0.399061C8.80031 0.13302 9.6991 0 10.6213 0C11.9187 0 13.1379 0.246635 14.279 0.739906C15.4201 1.23318 16.4127 1.90203 17.2567 2.74648C18.1008 3.59092 18.7692 4.58466 19.2619 5.7277C19.7546 6.87074 20.0006 8.09139 20 9.38967C20 10.313 19.8671 11.2128 19.6014 12.0892C19.3357 12.9656 18.9527 13.7872 18.4525 14.554Z" fill="white"/>
</svg>
